<svg width="2497" height="295" viewBox="0 0 2497 295" fill="none" xmlns="http://www.w3.org/2000/svg">
<path d="M2251.78 4.84328H2306.82C2318.71 26.4179 2330.59 47.5522 2342.48 69.1269C2353.49 89.3806 2365.38 109.194 2374.62 130.328C2383.43 110.075 2394.44 91.1418 2405 71.7687C2417.33 49.3134 2429.66 27.2985 2441.99 4.84328H2496.59V290.157H2448.59V159.388C2448.59 130.328 2447.27 100.828 2451.68 71.7687C2446.83 85.8582 2440.23 99.5075 2432.74 112.716C2419.53 136.493 2406.32 159.828 2393.12 183.164H2355.25C2346.88 168.634 2338.52 154.104 2330.59 139.134C2318.26 117.119 2304.62 95.5448 2296.69 71.3284C2299.77 90.2612 2300.21 109.634 2299.77 128.567V289.716H2251.34V4.84328H2251.78ZM1994.65 164.672V4.84328H2043.08V181.403C2043.08 192.41 2043.08 203.858 2046.16 214.866C2048.8 224.112 2054.09 233.358 2062.45 238.642C2073.02 246.127 2086.67 247.888 2099 247.448C2112.21 247.448 2126.74 244.806 2136.86 235.56C2146.11 227.194 2150.07 214.866 2151.39 202.978C2152.27 191.97 2152.27 180.963 2152.27 169.955V4.84328H2200.26V171.276C2200.26 188.888 2201.15 206.94 2197.62 224.112C2194.1 242.604 2185.29 261.097 2170.76 273.425C2153.59 288.396 2130.26 293.239 2108.24 295H2087.11C2069.5 293.679 2051.44 290.597 2036.03 281.351C2018.42 271.664 2006.09 254.052 2000.81 235.119C1992.88 212.664 1994.65 188.448 1994.65 164.672ZM1785.5 4.84328H1952.38V50.6343H1834.38V118.881H1947.97V164.672H1834.38V243.925H1952.38V289.716H1785.5V4.84328ZM1314.82 4.84328H1363.26V189.328C1363.26 203.858 1365.02 219.269 1374.26 231.157C1382.19 241.724 1395.4 246.127 1408.17 247.448C1421.38 248.328 1435.91 247.888 1447.79 241.724C1457.48 236.881 1464.53 228.075 1467.61 217.948C1472.45 204.299 1471.57 189.328 1471.57 175.239V4.84328H1520V185.366C1520 199.455 1519.56 213.985 1516.48 227.634C1512.52 246.127 1503.27 263.739 1487.86 275.627C1470.69 289.276 1448.68 294.119 1427.54 295.44H1405.97C1385.71 294.119 1364.58 289.716 1347.85 277.388C1332.44 266.381 1322.75 249.209 1318.35 231.597C1312.62 210.903 1313.94 189.328 1313.94 167.754C1314.82 113.157 1314.82 59 1314.82 4.84328ZM1017.62 4.84328H1072.66C1086.75 29.9403 1100.4 55.0373 1114.49 79.694C1123.74 95.9851 1132.98 112.276 1140.47 129.448C1143.55 124.604 1145.31 119.321 1147.95 114.478C1156.76 96.8657 1166.88 79.694 1176.13 62.5224C1186.7 43.1493 1197.71 24.2164 1208.27 4.84328H1263.31V290.157H1215.32V106.993C1215.32 95.5448 1216.64 83.6567 1217.96 72.209C1212.24 87.1791 1205.63 101.709 1197.26 115.358C1184.5 137.813 1171.73 160.269 1159.4 182.724H1121.53L1081.91 112.716C1076.18 102.59 1070.9 92.0224 1066.5 81.0149C1065.18 77.9328 1064.29 74.4104 1062.53 71.7687C1064.74 85.8582 1065.62 99.9478 1065.62 114.037V289.716H1018.06C1017.62 195.052 1017.62 99.9478 1017.62 4.84328ZM497.631 4.84328H546.063V121.963C576.004 83.6567 605.944 45.791 635.444 7.48507C636.325 6.16418 637.205 4.40299 639.407 4.84328H698.407C697.966 6.16418 697.526 7.48507 696.646 8.36567C660.981 52.8358 625.317 97.306 589.213 141.776C626.198 189.769 663.183 238.201 700.608 286.194C701.489 287.515 701.929 288.396 702.369 290.157H641.608C609.466 247.888 577.765 205.179 546.063 162.91C545.623 205.179 546.063 247.448 546.063 290.157H497.631V4.84328ZM384.034 4.84328H432.466V181.403C432.466 194.172 432.907 207.381 430.705 219.709C427.623 240.403 417.937 260.216 401.646 273.425C384.914 287.955 362.019 293.679 340.004 295H319.75C294.653 293.679 269.556 287.075 247.541 274.746V224.993C249.743 225.433 251.504 226.313 253.705 227.194C280.123 240.843 309.623 249.649 339.563 246.567C351.451 245.246 363.78 241.284 372.146 232.478C380.952 223.231 384.474 210.022 384.474 197.694C384.034 133.41 384.034 69.1269 384.034 4.84328ZM247.541 4.84328H295.974V182.284H247.981C247.541 123.284 247.541 63.8433 247.541 4.84328ZM49.4067 50.194V139.575H85.5112C99.6007 138.694 115.011 136.933 126.459 127.687C136.146 120.201 139.668 107.433 139.668 95.5448C140.108 84.097 137.026 71.3284 128.22 63.403C118.974 55.0373 106.646 51.9552 94.7575 51.0746C79.347 49.7537 64.3769 50.194 49.4067 50.194ZM0.973877 4.84328H80.2276C100.041 4.40299 120.735 6.16418 139.668 13.209C157.28 19.3731 172.69 32.1418 180.616 49.3134C190.302 70.4478 191.183 94.6642 187.66 117.56C184.138 138.694 171.369 158.067 152.437 168.634C169.168 209.142 186.78 249.649 203.071 290.597H150.675C136.586 254.933 122.496 218.828 108.407 182.724C89.0336 185.806 69.2201 184.045 49.847 184.485V290.597H0.973877V4.84328ZM1653.85 0H1672.79C1693.04 1.76119 1713.74 5.72388 1731.35 16.7313V66.4851C1722.98 62.0821 1715.06 57.6791 1705.81 54.597C1686.88 47.9925 1666.18 44.9104 1646.37 47.9925C1637.12 49.7537 1627.88 52.3955 1620.83 59C1607.62 70.8881 1607.62 95.1045 1622.15 106.112C1634.92 116.239 1651.21 120.201 1666.18 125.925C1686.88 132.97 1708.01 140.896 1722.54 157.627C1737.07 173.918 1741.03 196.813 1738.83 217.507C1737.07 238.201 1727.38 258.015 1711.53 271.224C1693.04 286.634 1669.26 293.679 1645.49 295.44H1626.56C1603.66 293.679 1579.88 288.396 1560.07 276.067V226.313C1583.85 239.963 1610.71 249.209 1638.44 248.769C1652.09 248.328 1666.18 245.687 1677.19 236.881C1690.4 226.313 1693.48 204.299 1682.47 191.09C1674.11 181.403 1661.34 177 1649.45 172.597C1629.64 165.552 1608.94 159.828 1591.33 147.94C1577.68 138.694 1567.12 125.045 1563.59 108.754C1559.19 90.7015 1559.63 70.8881 1566.24 53.2761C1571.52 39.1866 1581.65 26.8582 1594.41 18.4925C1612.03 6.60448 1633.16 1.3209 1653.85 0ZM814.205 0H833.138C853.392 1.76119 874.086 6.16418 891.698 16.7313V66.0448C886.854 63.8433 882.011 60.7612 877.168 58.5597C856.034 48.8731 832.257 44.0299 808.922 47.1119C798.354 48.4328 787.787 51.9552 780.302 59.4403C771.937 67.806 769.735 81.0149 773.257 92.0224C776.34 101.709 785.146 108.313 793.952 112.276C819.049 124.164 847.228 128.567 870.123 144.858C883.772 154.104 893.899 168.194 897.422 184.045C902.705 206.94 900.504 232.918 887.295 253.172C876.728 269.903 859.556 281.351 841.504 287.515C830.056 291.478 818.168 293.239 806.28 294.56H787.347C764.011 292.799 740.675 287.515 720.422 275.187V225.433C727.026 228.515 733.19 232.478 739.795 235.119C760.489 243.925 782.944 249.649 805.399 247.448C817.728 246.127 830.496 243.045 839.302 234.239C849.429 224.993 852.071 209.142 846.787 196.813C842.825 187.567 833.578 181.843 824.772 177.881C812.004 172.157 798.795 168.194 785.586 163.351C767.093 156.746 747.72 147.94 735.392 131.649C722.623 115.799 719.541 94.2239 721.302 74.4104C723.063 55.9179 730.989 38.306 744.638 25.5373C763.571 9.24627 789.548 1.76119 814.205 0Z" fill="white"/>
</svg>
